<svg width="0" height="0" class="hidden">
  <symbol xmlns="http://www.w3.org/2000/svg" viewBox="0 0 512 512" id="magnifying-glass-solid">
    <path d="M416 208c0 45.9-14.9 88.3-40 122.7L502.6 457.4c12.5 12.5 12.5 32.8 0 45.3s-32.8 12.5-45.3 0L330.7 376c-34.4 25.2-76.8 40-122.7 40C93.1 416 0 322.9 0 208S93.1 0 208 0S416 93.1 416 208zM208 352a144 144 0 1 0 0-288 144 144 0 1 0 0 288z"></path>
  </symbol>
  <symbol xmlns="http://www.w3.org/2000/svg" viewBox="0 0 576 512" id="basket-shopping-solid">
    <path d="M253.3 35.1c6.1-11.8 1.5-26.3-10.2-32.4s-26.3-1.5-32.4 10.2L117.6 192H32c-17.7 0-32 14.3-32 32s14.3 32 32 32L83.9 463.5C91 492 116.6 512 146 512H430c29.4 0 55-20 62.1-48.5L544 256c17.7 0 32-14.3 32-32s-14.3-32-32-32H458.4L365.3 12.9C359.2 1.2 344.7-3.4 332.9 2.7s-16.3 20.6-10.2 32.4L404.3 192H171.7L253.3 35.1zM192 304v96c0 8.8-7.2 16-16 16s-16-7.2-16-16V304c0-8.8 7.2-16 16-16s16 7.2 16 16zm96-16c8.8 0 16 7.2 16 16v96c0 8.8-7.2 16-16 16s-16-7.2-16-16V304c0-8.8 7.2-16 16-16zm128 16v96c0 8.8-7.2 16-16 16s-16-7.2-16-16V304c0-8.8 7.2-16 16-16s16 7.2 16 16z"></path>
  </symbol>
   <symbol xmlns="http://www.w3.org/2000/svg" viewBox="0 0 448 512" id="user-solid">
    <path d="M224 256A128 128 0 1 0 224 0a128 128 0 1 0 0 256zm-45.7 48C79.8 304 0 383.8 0 482.3C0 498.7 13.3 512 29.7 512H418.3c16.4 0 29.7-13.3 29.7-29.7C448 383.8 368.2 304 269.7 304H178.3z"></path>
  </symbol>
  <symbol xmlns="http://www.w3.org/2000/svg" xmlns:xlink="http://www.w3.org/1999/xlink" viewBox="0,0,256,256" id="icons8-logo">
    <g transform="translate(-32,-32) scale(1.25,1.25)">
      <g fill="none" fill-rule="nonzero" stroke="none" stroke-width="1" stroke-linecap="butt" stroke-linejoin="miter" stroke-miterlimit="10" stroke-dasharray="" stroke-dashoffset="0" font-family="none" font-weight="none" font-size="none" text-anchor="none">
        <g transform="scale(5.33333,5.33333)">
          <path d="M30,43h-21c-2.209,0 -4,-1.791 -4,-4v-21c0,-2.209 1.791,-4 4,-4h21c2.209,0 4,1.791 4,4v21c0,2.209 -1.791,4 -4,4zM28,34v-11c0,-1.657 -1.343,-3 -3,-3h-11c-1.657,0 -3,1.343 -3,3v11c0,1.657 1.343,3 3,3h11c1.657,0 3,-1.343 3,-3z" fill="#ff8800"></path>
          <path d="M34,27v8h-6.18c0.12,-0.31 0.18,-0.65 0.18,-1v-7z" fill="#000000" opacity="0.07"></path>
          <path d="M34,27.5v7h-6.05c0.04,-0.16 0.05,-0.33 0.05,-0.5v-6.5z" fill="#000000" opacity="0.07"></path>
          <path d="M39,5h-21c-2.21,0 -4,1.79 -4,4v5h6c0,-1.66 1.34,-3 3,-3h11c1.66,0 3,1.34 3,3v11c0,1.66 -1.34,3 -3,3h-11c-1.66,0 -3,-1.34 -3,-3v-5h-6v10c0,2.21 1.79,4 4,4h21c2.21,0 4,-1.79 4,-4v-21c0,-2.21 -1.79,-4 -4,-4z" fill="#25a2e5"></path>
          <path d="M20.18,13c-0.12,0.31 -0.18,0.65 -0.18,1h-6.02v-1z" fill="#000000" opacity="0.05"></path>
          <path d="M20.05,13.5c-0.04,0.16 -0.05,0.33 -0.05,0.5h-6.02v-0.5z" fill="#000000" opacity="0.07"></path>
          <rect x="-19.999" y="-21" transform="rotate(-180)" width="6.019" height="1" fill="#000000" opacity="0.05"></rect>
          <rect x="-19.999" y="-20.5" transform="rotate(-180)" width="6.019" height="0.5" fill="#000000" opacity="0.07"></rect>
        </g>
      </g>
    </g>
  </symbol>
  <symbol xmlns="http://www.w3.org/2000/svg" viewBox="0 0 512 512" id="facebook">
    <path opacity="1" fill="#005eff" d="M512 256C512 114.6 397.4 0 256 0S0 114.6 0 256C0 376 82.7 476.8 194.2 504.5V334.2H141.4V256h52.8V222.3c0-87.1 39.4-127.5 125-127.5c16.2 0 44.2 3.2 55.7 6.4V172c-6-.6-16.5-1-29.6-1c-42 0-58.2 15.9-58.2 57.2V256h83.6l-14.4 78.2H287V510.1C413.8 494.8 512 386.9 512 256h0z"></path>
  </symbol>
  <symbol xmlns="http://www.w3.org/2000/svg" viewBox="0 0 448 512" id="whatsapp">
    <path opacity="1" fill="#00ff2a" d="M380.9 97.1C339 55.1 283.2 32 223.9 32c-122.4 0-222 99.6-222 222 0 39.1 10.2 77.3 29.6 111L0 480l117.7-30.9c32.4 17.7 68.9 27 106.1 27h.1c122.3 0 224.1-99.6 224.1-222 0-59.3-25.2-115-67.1-157zm-157 341.6c-33.2 0-65.7-8.9-94-25.7l-6.7-4-69.8 18.3L72 359.2l-4.4-7c-18.5-29.4-28.2-63.3-28.2-98.2 0-101.7 82.8-184.5 184.6-184.5 49.3 0 95.6 19.2 130.4 54.1 34.8 34.9 56.2 81.2 56.1 130.5 0 101.8-84.9 184.6-186.6 184.6zm101.2-138.2c-5.5-2.8-32.8-16.2-37.9-18-5.1-1.9-8.8-2.8-12.5 2.8-3.7 5.6-14.3 18-17.6 21.8-3.2 3.7-6.5 4.2-12 1.4-32.6-16.3-54-29.1-75.5-66-5.7-9.8 5.7-9.1 16.3-30.3 1.8-3.7 .9-6.9-.5-9.7-1.4-2.8-12.5-30.1-17.1-41.2-4.5-10.8-9.1-9.3-12.5-9.5-3.2-.2-6.9-.2-10.6-.2-3.7 0-9.7 1.4-14.8 6.9-5.1 5.6-19.4 19-19.4 46.3 0 27.3 19.9 53.7 22.6 57.4 2.8 3.7 39.1 59.7 94.8 83.8 35.2 15.2 49 16.5 66.6 13.9 10.7-1.6 32.8-13.4 37.4-26.4 4.6-13 4.6-24.1 3.2-26.4-1.3-2.5-5-3.9-10.5-6.6z"></path>
  </symbol>
  <symbol xmlns="http://www.w3.org/2000/svg" viewBox="0 0 448 512" id="tiktok">
    <path opacity="1" fill="#1E3050" d="M448 209.9a210.1 210.1 0 0 1 -122.8-39.3V349.4A162.6 162.6 0 1 1 185 188.3V278.2a74.6 74.6 0 1 0 52.2 71.2V0l88 0a121.2 121.2 0 0 0 1.9 22.2h0A122.2 122.2 0 0 0 381 102.4a121.4 121.4 0 0 0 67 20.1z"></path>
  </symbol>
  <symbol xmlns="http://www.w3.org/2000/svg" viewBox="0 0 576 512" id="credit-card-regular">
    <path opacity="1" fill="#1E3050" d="M512 80c8.8 0 16 7.2 16 16v32H48V96c0-8.8 7.2-16 16-16H512zm16 144V416c0 8.8-7.2 16-16 16H64c-8.8 0-16-7.2-16-16V224H528zM64 32C28.7 32 0 60.7 0 96V416c0 35.3 28.7 64 64 64H512c35.3 0 64-28.7 64-64V96c0-35.3-28.7-64-64-64H64zm56 304c-13.3 0-24 10.7-24 24s10.7 24 24 24h48c13.3 0 24-10.7 24-24s-10.7-24-24-24H120zm128 0c-13.3 0-24 10.7-24 24s10.7 24 24 24H360c13.3 0 24-10.7 24-24s-10.7-24-24-24H248z"></path>
  </symbol>
  <symbol xmlns="http://www.w3.org/2000/svg" viewBox="0 0 512 512" id="right-left-solid">
    <path opacity="1" fill="#1E3050" d="M32 96l320 0V32c0-12.9 7.8-24.6 19.8-29.6s25.7-2.2 34.9 6.9l96 96c6 6 9.4 14.1 9.4 22.6s-3.4 16.6-9.4 22.6l-96 96c-9.2 9.2-22.9 11.9-34.9 6.9s-19.8-16.6-19.8-29.6V160L32 160c-17.7 0-32-14.3-32-32s14.3-32 32-32zM480 352c17.7 0 32 14.3 32 32s-14.3 32-32 32H160v64c0 12.9-7.8 24.6-19.8 29.6s-25.7 2.2-34.9-6.9l-96-96c-6-6-9.4-14.1-9.4-22.6s3.4-16.6 9.4-22.6l96-96c9.2-9.2 22.9-11.9 34.9-6.9s19.8 16.6 19.8 29.6l0 64H480z"></path>
  </symbol>
  <symbol xmlns="http://www.w3.org/2000/svg" viewBox="0 0 640 512" id="truck-fast-solid">
    <path opacity="1" fill="#1E3050" d="M112 0C85.5 0 64 21.5 64 48V96H16c-8.8 0-16 7.2-16 16s7.2 16 16 16H64 272c8.8 0 16 7.2 16 16s-7.2 16-16 16H64 48c-8.8 0-16 7.2-16 16s7.2 16 16 16H64 240c8.8 0 16 7.2 16 16s-7.2 16-16 16H64 16c-8.8 0-16 7.2-16 16s7.2 16 16 16H64 208c8.8 0 16 7.2 16 16s-7.2 16-16 16H64V416c0 53 43 96 96 96s96-43 96-96H384c0 53 43 96 96 96s96-43 96-96h32c17.7 0 32-14.3 32-32s-14.3-32-32-32V288 256 237.3c0-17-6.7-33.3-18.7-45.3L512 114.7c-12-12-28.3-18.7-45.3-18.7H416V48c0-26.5-21.5-48-48-48H112zM544 237.3V256H416V160h50.7L544 237.3zM160 368a48 48 0 1 1 0 96 48 48 0 1 1 0-96zm272 48a48 48 0 1 1 96 0 48 48 0 1 1 -96 0z"></path>
  </symbol>
</svg>
